<svg id="Capa_1" data-name="Capa 1" xmlns="http://www.w3.org/2000/svg" xmlns:xlink="http://www.w3.org/1999/xlink" viewBox="0 0 102 103"><defs><style>.cls-1{fill:url(#Degradado_sin_nombre_12);}.cls-2{fill:url(#Degradado_sin_nombre_12-2);}.cls-3{fill:url(#Degradado_sin_nombre_12-3);}.cls-4{fill:url(#Degradado_sin_nombre_12-4);}.cls-5{fill:#c69c6d;}.cls-6{fill:url(#Degradado_sin_nombre_12-5);}.cls-7{fill:url(#Degradado_sin_nombre_12-6);}.cls-8{fill:#00a3aa;}</style><linearGradient id="Degradado_sin_nombre_12" x1="67.17" y1="38.36" x2="86.32" y2="38.36" gradientUnits="userSpaceOnUse"><stop offset="0" stop-color="#48ab84"/><stop offset="0.62" stop-color="#2ea0ab"/><stop offset="1" stop-color="#219abe"/></linearGradient><linearGradient id="Degradado_sin_nombre_12-2" x1="67.17" y1="36.81" x2="78.35" y2="36.81" xlink:href="#Degradado_sin_nombre_12"/><linearGradient id="Degradado_sin_nombre_12-3" x1="28.5" y1="47.14" x2="43.58" y2="47.14" xlink:href="#Degradado_sin_nombre_12"/><linearGradient id="Degradado_sin_nombre_12-4" x1="28.5" y1="44.24" x2="40.79" y2="44.24" xlink:href="#Degradado_sin_nombre_12"/><linearGradient id="Degradado_sin_nombre_12-5" x1="13.46" y1="58.95" x2="79.72" y2="58.95" xlink:href="#Degradado_sin_nombre_12"/><linearGradient id="Degradado_sin_nombre_12-6" x1="51.16" y1="75.55" x2="82.47" y2="44.24" xlink:href="#Degradado_sin_nombre_12"/></defs><title>LOGOS</title><path class="cls-1" d="M86.32,48.08c-.18-.12-.35-.25-.53-.36a17.42,17.42,0,0,0-6.05-2.52l-.38-.07a17.14,17.14,0,0,0-3.14-.29c-.56,0-1.1,0-1.65.07l-.39.05c0-.14,0-.27,0-.41a14.93,14.93,0,0,0,.1-1.78A17.39,17.39,0,0,0,68.83,30l-.32-.3-.41-.36c-.3-.25-.61-.5-.93-.73.38.12.76.25,1.13.39s.71.27,1.07.42l.56.24a29.68,29.68,0,0,1,9,6.22c.41.41.81.83,1.18,1.26l.41.46a29.44,29.44,0,0,1,5.55,9.83C86.19,47.67,86.25,47.88,86.32,48.08Z"/><path class="cls-2" d="M78.35,44.78V45l-.39,0a16.61,16.61,0,0,0-1.74-.09c-.56,0-1.1,0-1.65.07l-.39.05c0-.14,0-.27,0-.41a14.93,14.93,0,0,0,.1-1.78A17.39,17.39,0,0,0,68.83,30l-.32-.3-.41-.36c-.3-.25-.61-.5-.93-.73l.46.15.67.24c.36.13.71.27,1.07.42l.56.24.57.26A17.87,17.87,0,0,1,78.35,44.78Z"/><path class="cls-3" d="M28.5,56.16s6.41,7.19,13.6,9c0,0,6.7-21.46-8.4-36C33.7,29.14,37.72,46.22,28.5,56.16Z"/><path class="cls-4" d="M40.79,43.87a17.9,17.9,0,0,1-9,15.46l-.31-.27a35.8,35.8,0,0,1-3-2.9c7.8-8.41,6.13-21.91,5.43-25.88,0-.23-.08-.43-.11-.59-.07-.36-.12-.55-.12-.55A31.36,31.36,0,0,1,37,32.8l.06.08q.4.52.78,1.08A17.83,17.83,0,0,1,40.79,43.87Z"/><path class="cls-5" d="M6,36.61S15.9,22,51.29,30.43,93,9.06,93,9.06s-7.59,23.49-36.8,18.27S12.76,27.57,6,36.61Z"/><path class="cls-6" d="M79.72,80.36l0,0-.22.22a38,38,0,0,1-6.32,5l-.48.31a40.75,40.75,0,0,1-5.34,2.75,38.8,38.8,0,0,1-41.73-7.6l-.32-.3-.5-.5a38.62,38.62,0,0,1-8.18-12.06l-.12-.29,0-.07A38.81,38.81,0,0,1,23.37,27l.72-.78c-.11.27-.21.54-.31.81a29.35,29.35,0,0,0,4.81,28.87l.4.47c.41.47.83.93,1.27,1.38l.2.21.08.07a29.09,29.09,0,0,0,12.15,7.29l.38.11a29.44,29.44,0,0,0,7.4,1.13c-.29-.82-.53-1.66-.74-2.5,0-.13-.06-.26-.09-.38a29,29,0,0,1-.77-6c0-.15,0-.3,0-.44v-.33a29.4,29.4,0,0,1,8.65-21c.36-.37.74-.73,1.13-1.08l.29-.26c.38-.34.77-.66,1.17-1l.32-.26.28-.21c-.1.23-.19.47-.28.71-.22.59-.42,1.18-.6,1.79,0,.15-.09.31-.13.47a29.14,29.14,0,0,0-1.11,8c0,.56,0,1.12.05,1.67V46A38.54,38.54,0,0,0,79.72,80.36Z"/><path class="cls-7" d="M85,73.67l-.1,0h.13C85.59,72.79,94.41,58.39,88,50a17.36,17.36,0,0,0-1.71-1.93,12.22,12.22,0,0,0-7.94-3.57,13.14,13.14,0,0,0-4.17.45,9.88,9.88,0,0,0-1.43.5l-.18.07c-10.39,4.23-9,13-8,16.37a28.68,28.68,0,0,1-2-3l-.2-.35A28.68,28.68,0,0,1,61,55.84c-.07-.15-.13-.3-.19-.44q-.21-.49-.39-1c-.07-.17-.13-.35-.19-.52A29.45,29.45,0,0,1,59,39.1c0-.21.07-.42.11-.62.15-.8.34-1.6.56-2.37,0-.16.09-.32.14-.47.18-.61.38-1.2.6-1.79.09-.24.18-.48.28-.71-.21.15-.41.31-.61.47-.39.31-.78.63-1.16,1l-.29.26q-.59.52-1.14,1.08a29.48,29.48,0,0,0-8.65,21c0,.1,0,.22,0,.33s0,.29,0,.44c0,.41,0,.81.05,1.21,0,.66-.06,1.31-.07,2A29.71,29.71,0,0,0,67,88.27l.66.27.51-.23a38.26,38.26,0,0,0,4.48-2.37l.49-.31a38.54,38.54,0,0,0,6.53-5.25c.59-.58,1.16-1.18,1.7-1.8.17-.18.33-.37.49-.55a39.44,39.44,0,0,0,3.23-4.4h0Zm-5-11.91H73.63a6.08,6.08,0,0,1,.14-12.16h6.3a6.09,6.09,0,1,1,0,12.17Z"/><path class="cls-8" d="M89.4,12.15a6.39,6.39,0,0,1,.1,4A6.46,6.46,0,0,1,87,9,6.49,6.49,0,0,1,89.4,12.15Z"/></svg>